{"glyphs":{"0":{"ha":825,"x_min":0,"x_max":0,"o":"m 413 -21 b 69 486 181 -21 69 218 b 413 993 69 754 181 993 b 756 486 644 993 756 754 b 413 -21 756 218 644 -21 m 413 -1 b 643 486 564 -3 643 226 b 413 974 643 746 564 975 b 182 486 258 974 182 746 b 413 -1 182 226 258 -1 "},"1":{"ha":483,"x_min":0,"x_max":0,"o":"m 58 0 l 58 15 l 119 19 b 201 118 160 22 201 53 l 201 807 b 118 849 201 856 168 872 l 51 818 l 46 832 l 283 974 l 296 971 l 296 118 b 368 19 296 53 326 22 l 428 15 l 428 0 "},"2":{"ha":735,"x_min":0,"x_max":0,"o":"m 60 0 l 60 14 l 288 271 b 525 736 433 435 525 550 b 354 974 525 867 464 974 b 171 775 239 974 192 878 b 108 713 161 732 135 713 b 56 776 79 713 51 735 b 351 993 68 892 200 993 b 633 729 496 993 633 892 b 343 289 633 538 458 411 l 163 92 l 442 92 b 674 246 574 92 628 114 l 690 246 l 638 0 "},"3":{"ha":751,"x_min":0,"x_max":0,"o":"m 351 -21 b 54 144 215 -21 56 47 b 107 196 54 174 78 196 b 169 144 131 196 156 175 b 376 4 206 64 271 4 b 590 240 506 4 590 85 b 271 481 590 394 451 515 l 271 508 b 525 783 406 551 525 654 b 369 974 525 918 456 974 b 208 806 267 974 229 896 b 147 743 197 758 171 743 b 94 807 118 743 90 765 b 365 993 104 904 224 993 b 628 785 514 993 628 910 b 440 568 628 688 542 604 l 440 550 b 696 269 596 529 696 397 b 351 -21 696 69 511 -21 "},"4":{"ha":821,"x_min":0,"x_max":0,"o":"m 313 0 l 313 15 l 383 19 b 456 111 422 22 456 49 l 456 288 l 24 288 l 535 972 l 550 972 l 550 379 l 779 379 l 746 288 l 550 288 l 550 111 b 618 19 550 49 579 22 l 692 15 l 692 0 m 138 379 l 456 379 l 456 814 "},"5":{"ha":711,"x_min":0,"x_max":0,"o":"m 314 -21 b 42 144 194 -21 42 47 b 94 196 42 174 65 196 b 157 144 119 196 143 175 b 349 4 193 64 261 4 b 554 242 464 4 554 89 b 122 615 554 425 338 543 l 110 628 l 240 972 l 622 972 l 583 879 l 231 879 l 168 707 b 642 278 394 625 642 506 b 314 -21 642 96 486 -21 "},"6":{"ha":761,"x_min":0,"x_max":0,"o":"m 390 -21 b 65 365 228 -21 65 111 b 544 993 65 686 317 915 l 551 976 b 169 469 414 913 203 697 l 194 469 b 425 576 246 524 318 576 b 701 290 569 576 701 461 b 390 -21 701 96 561 -21 m 392 -3 b 593 272 497 -4 593 79 b 393 540 594 424 517 540 b 172 415 306 540 225 483 l 172 354 b 392 -3 172 133 268 -3 "},"7":{"ha":700,"x_min":0,"x_max":0,"o":"m 256 -17 b 201 75 226 -17 201 7 b 454 683 211 288 354 535 l 588 882 l 281 882 b 54 724 156 882 103 867 l 38 724 l 89 974 l 672 974 l 672 960 l 488 682 b 313 61 372 508 315 290 b 256 -17 313 6 285 -17 "},"8":{"ha":747,"x_min":0,"x_max":0,"o":"m 376 -21 b 65 244 204 -19 64 92 b 304 506 67 374 179 454 l 289 515 b 106 768 192 575 106 654 b 378 993 106 901 239 994 b 640 771 514 992 640 899 b 439 544 640 663 547 589 l 467 531 b 682 257 593 467 682 378 b 376 -21 682 108 549 -22 m 415 558 b 544 785 503 618 543 707 b 378 972 544 893 467 971 b 199 797 279 974 199 910 b 351 593 199 699 276 633 m 376 0 b 590 207 493 0 590 78 b 426 438 590 304 535 378 l 324 494 b 165 236 228 435 165 347 b 376 0 165 110 254 0 "},"9":{"ha":761,"x_min":0,"x_max":0,"o":"m 204 -4 b 586 503 343 60 554 275 l 563 503 b 332 396 510 449 439 396 b 56 682 188 396 56 511 b 365 993 56 876 196 993 b 692 607 529 993 692 861 b 213 -21 692 286 440 57 m 363 432 b 583 557 451 432 531 489 l 583 618 b 365 975 583 839 488 975 b 163 700 258 976 164 893 b 363 432 163 549 240 432 "}," ":{"ha":347,"x_min":0,"x_max":0,"o":""},"A":{"ha":1104,"x_min":0,"x_max":0,"o":"m 1090 15 l 1090 0 l 707 0 l 707 15 l 757 19 b 814 129 811 24 847 53 l 721 353 l 307 353 l 224 147 b 300 21 186 57 244 26 l 342 15 l 342 0 l 14 0 l 14 15 l 44 19 b 186 150 101 26 143 51 l 538 972 l 572 972 l 935 128 b 1054 19 968 49 996 25 m 319 382 l 708 382 l 524 826 l 500 826 "},"B":{"ha":1015,"x_min":0,"x_max":0,"o":"m 71 0 l 71 15 l 129 19 b 213 128 193 24 213 63 l 213 844 b 129 953 213 910 193 949 l 69 957 l 69 972 l 553 972 b 875 750 783 972 875 860 b 656 538 875 628 778 554 l 656 514 b 943 263 839 501 943 396 b 568 0 943 124 835 0 m 318 531 l 528 531 b 764 750 690 531 765 626 b 510 950 763 865 699 950 l 422 950 b 318 844 342 950 318 925 m 503 24 b 824 263 721 24 825 118 b 522 506 822 397 743 506 l 318 506 l 318 128 b 458 24 318 25 356 24 "},"C":{"ha":1092,"x_min":0,"x_max":0,"o":"m 561 -21 b 69 478 271 -21 69 199 b 578 993 69 771 294 993 b 1024 763 772 993 924 907 l 892 582 l 878 590 b 572 971 950 833 776 971 b 186 500 324 971 186 744 b 607 39 186 238 350 39 b 1003 347 794 39 942 168 l 1021 343 b 561 -21 958 115 790 -21 "},"D":{"ha":1078,"x_min":0,"x_max":0,"o":"m 69 0 l 69 15 l 128 19 b 211 128 193 24 211 63 l 211 844 b 128 953 211 910 193 949 l 69 957 l 69 972 l 476 971 b 1008 493 833 971 1008 738 b 542 0 1008 236 847 0 m 482 22 b 888 494 739 17 889 236 b 469 949 886 747 733 949 l 415 949 b 317 844 335 949 317 911 l 317 128 b 482 22 317 29 360 24 "},"E":{"ha":967,"x_min":0,"x_max":0,"o":"m 69 0 l 69 15 l 135 19 b 211 128 199 24 211 63 l 211 844 b 135 953 211 910 199 949 l 69 957 l 69 972 l 856 972 l 889 696 l 872 696 b 610 950 840 822 788 950 l 451 950 b 317 844 336 950 317 940 l 317 518 l 600 518 b 731 636 675 518 724 564 l 736 681 l 751 681 l 751 331 l 736 331 l 731 375 b 600 492 724 447 675 492 l 317 492 l 317 128 b 435 25 317 35 339 25 l 632 25 b 897 293 781 25 847 125 l 913 293 l 890 0 "},"F":{"ha":915,"x_min":0,"x_max":0,"o":"m 69 0 l 69 15 l 128 19 b 211 128 193 24 211 63 l 211 844 b 128 953 211 910 193 949 l 69 957 l 69 972 l 849 972 l 875 724 l 858 724 b 601 950 813 876 750 950 l 428 950 b 317 844 344 950 317 910 l 317 492 l 578 492 b 719 610 664 492 711 538 l 724 654 l 739 654 l 739 303 l 724 303 l 719 347 b 578 465 711 419 664 465 l 317 465 l 317 128 b 404 19 317 63 339 24 l 467 15 l 467 0 "},"G":{"ha":1110,"x_min":0,"x_max":0,"o":"m 571 -21 b 69 478 271 -21 69 199 b 578 993 69 771 294 993 b 1024 763 772 993 924 907 l 892 582 l 878 590 b 572 971 950 833 776 971 b 186 500 324 971 186 744 b 610 8 186 238 353 8 b 876 196 738 8 876 75 l 876 289 b 769 397 876 356 872 393 l 669 401 l 669 417 l 1096 417 l 1096 401 l 1053 397 b 976 296 990 390 976 354 l 976 143 b 571 -21 893 47 764 -21 "},"H":{"ha":1167,"x_min":0,"x_max":0,"o":"m 69 0 l 69 15 l 128 19 b 211 128 193 24 211 63 l 211 844 b 128 953 211 910 193 949 l 69 957 l 69 972 l 460 972 l 460 957 l 400 953 b 317 844 335 949 317 910 l 317 517 l 850 517 l 850 844 b 768 953 850 910 832 949 l 708 957 l 708 972 l 1097 972 l 1097 957 l 1039 953 b 956 844 974 949 956 910 l 956 128 b 1039 19 956 63 974 24 l 1097 15 l 1097 0 l 708 0 l 708 15 l 768 19 b 850 128 832 24 850 63 l 850 489 l 317 489 l 317 128 b 400 19 317 63 335 24 l 460 15 l 460 0 "},"I":{"ha":529,"x_min":0,"x_max":0,"o":"m 69 0 l 69 15 l 129 19 b 213 128 193 24 213 63 l 213 844 b 129 953 213 910 193 949 l 69 957 l 69 972 l 460 972 l 460 957 l 400 953 b 318 844 336 949 318 910 l 318 128 b 400 19 318 63 336 24 l 460 15 l 460 0 "},"J":{"ha":513,"x_min":0,"x_max":0,"o":"m 42 -203 b 206 90 168 -178 206 -90 l 206 861 b 119 954 206 931 171 951 l 54 958 l 54 972 l 451 972 l 451 958 l 397 954 b 310 861 346 950 310 931 l 310 90 b 46 -222 310 -126 181 -199 "},"K":{"ha":1065,"x_min":0,"x_max":0,"o":"m 69 0 l 69 15 l 128 19 b 211 128 193 24 211 63 l 211 844 b 128 953 211 910 193 949 l 69 957 l 69 972 l 460 972 l 460 957 l 400 953 b 317 844 335 949 317 910 l 317 589 l 304 483 l 326 483 l 686 847 b 658 954 738 897 708 950 l 610 958 l 610 972 l 974 972 l 974 958 l 938 956 b 724 840 874 950 793 908 l 465 592 l 858 110 b 1017 19 903 56 958 25 l 1057 15 l 1057 1 l 658 1 l 658 15 l 711 19 b 736 89 756 22 771 49 l 390 517 l 317 444 l 317 128 b 400 19 317 63 335 24 l 460 15 l 460 0 "},"L":{"ha":897,"x_min":0,"x_max":0,"o":"m 69 0 l 69 15 l 135 19 b 211 128 199 24 211 63 l 211 844 b 135 953 211 910 199 949 l 69 957 l 69 972 l 460 972 l 460 957 l 393 953 b 317 844 329 949 317 910 l 317 128 b 450 24 317 39 343 24 l 554 24 b 840 285 750 24 796 131 l 856 285 l 828 0 "},"M":{"ha":1319,"x_min":0,"x_max":0,"o":"m 65 0 l 65 15 l 121 19 b 218 128 186 25 218 61 l 218 844 b 121 953 218 910 186 947 l 65 957 l 65 972 l 328 972 l 665 208 l 690 208 l 1006 972 l 1250 972 l 1250 957 l 1190 953 b 1107 844 1125 949 1107 910 l 1107 128 b 1190 19 1107 63 1125 24 l 1250 15 l 1250 0 l 860 0 l 860 15 l 918 19 b 1001 128 983 24 1001 63 l 1001 815 l 975 815 l 647 28 l 613 28 l 272 815 l 247 815 l 247 128 b 344 19 247 61 279 24 l 410 15 l 410 0 "},"N":{"ha":1131,"x_min":0,"x_max":0,"o":"m 63 0 l 63 15 l 118 19 b 214 128 182 25 214 61 l 214 863 b 129 954 214 929 164 951 l 79 958 l 79 972 l 307 972 l 871 225 l 896 225 l 896 844 b 799 953 896 910 864 949 l 733 957 l 733 972 l 1076 972 l 1076 957 l 1021 953 b 925 844 957 947 925 911 l 925 0 l 908 0 l 269 829 l 243 829 l 243 128 b 340 19 243 63 275 24 l 406 15 l 406 0 "},"O":{"ha":1140,"x_min":0,"x_max":0,"o":"m 571 -21 b 69 486 289 -21 69 186 b 571 993 69 786 289 993 b 1071 486 853 993 1071 786 b 571 -21 1071 186 853 -21 m 571 0 b 946 486 768 1 946 194 b 571 972 946 778 768 971 b 196 486 371 971 196 778 b 571 0 196 194 371 1 "},"P":{"ha":947,"x_min":0,"x_max":0,"o":"m 69 0 l 69 15 l 128 19 b 211 128 193 24 211 63 l 211 844 b 128 953 211 910 193 949 l 69 957 l 69 972 l 539 972 b 899 704 779 972 899 854 b 546 426 899 563 772 426 l 317 426 l 317 128 b 400 19 317 63 335 26 l 460 15 l 460 0 m 317 453 l 478 453 b 778 704 686 453 776 556 b 499 950 779 851 675 953 l 404 950 b 317 844 333 949 317 911 "},"Q":{"ha":1140,"x_min":0,"x_max":0,"o":"m 1017 -265 b 818 -174 938 -265 883 -231 l 753 -115 b 571 -21 693 -64 663 -21 b 69 486 289 -21 69 186 b 571 993 69 786 289 993 b 1071 486 853 993 1071 786 b 706 7 1071 238 917 50 l 706 -17 b 872 -89 769 -24 831 -56 l 932 -136 b 1075 -201 965 -162 1015 -201 b 1214 -132 1124 -201 1172 -182 l 1228 -146 b 1017 -265 1165 -217 1100 -265 m 571 1 b 946 486 768 1 946 194 b 571 972 946 778 768 971 b 196 486 371 971 196 778 b 571 1 196 194 371 1 "},"R":{"ha":1026,"x_min":0,"x_max":0,"o":"m 854 -17 b 700 115 768 -17 721 28 l 663 282 b 465 478 638 390 600 478 l 317 478 l 317 128 b 393 19 317 63 329 24 l 460 15 l 460 0 l 69 0 l 69 15 l 135 19 b 211 128 199 24 211 63 l 211 844 b 135 953 211 910 199 949 l 69 957 l 69 972 l 544 972 b 871 726 790 972 871 843 b 592 494 871 626 793 507 l 592 469 b 779 281 694 464 756 383 l 818 125 b 899 47 831 74 858 47 b 994 151 947 47 982 86 l 1008 149 b 854 -17 1000 53 932 -17 m 317 503 l 483 503 b 756 726 683 503 754 606 b 497 950 756 846 693 950 l 451 950 b 317 844 335 950 317 938 "},"S":{"ha":882,"x_min":0,"x_max":0,"o":"m 478 -21 b 175 54 322 -21 246 54 b 108 -15 128 54 115 11 l 93 -15 l 79 328 l 94 328 b 476 4 133 144 315 4 b 701 197 592 4 701 75 b 463 433 701 311 632 375 l 310 486 b 93 743 174 533 93 622 b 406 994 93 892 235 994 b 663 928 528 994 610 928 b 725 986 704 928 717 961 l 740 986 l 754 668 l 739 668 b 399 972 697 838 556 972 b 181 794 285 972 181 906 b 435 560 181 672 268 614 l 576 514 b 806 246 707 472 806 379 b 478 -21 806 71 635 -21 "},"T":{"ha":882,"x_min":0,"x_max":0,"o":"m 246 0 l 246 15 l 311 19 b 388 128 376 24 388 63 l 388 844 b 308 954 388 913 376 954 l 260 954 b 42 718 126 954 88 874 l 28 718 l 53 972 l 829 972 l 854 718 l 840 718 b 621 954 794 874 756 954 l 574 954 b 493 844 506 956 493 911 l 493 128 b 571 19 493 63 506 24 l 636 15 l 636 0 "},"U":{"ha":1099,"x_min":0,"x_max":0,"o":"m 553 -18 b 179 343 347 -17 179 103 l 178 844 b 92 953 178 910 156 947 l 36 957 l 36 972 l 425 972 l 425 957 l 371 953 b 283 844 306 947 283 910 l 283 367 b 578 49 283 147 419 49 b 885 376 738 49 885 160 l 885 844 b 788 953 885 910 853 947 l 732 957 l 732 972 l 1064 972 l 1064 957 l 1008 953 b 913 844 944 947 913 911 l 913 356 b 553 -18 913 121 760 -18 "},"V":{"ha":1086,"x_min":0,"x_max":0,"o":"m 540 0 l 185 844 b 61 953 151 924 121 947 l 14 957 l 14 972 l 411 972 l 411 957 l 361 953 b 301 843 306 949 271 919 l 574 181 l 599 181 l 846 825 b 771 951 882 918 825 946 l 729 957 l 729 972 l 1072 972 l 1072 957 l 1033 951 b 882 822 976 944 921 922 l 558 0 "},"W":{"ha":1544,"x_min":0,"x_max":0,"o":"m 1188 972 l 1531 972 l 1531 957 l 1492 951 b 1340 822 1435 944 1382 919 l 1000 0 l 983 0 l 772 444 l 574 0 l 557 0 l 185 844 b 61 953 150 924 121 947 l 14 957 l 14 972 l 400 972 l 400 957 l 361 953 b 301 843 306 947 269 918 l 590 168 l 614 168 l 754 483 l 583 844 b 460 953 546 924 519 946 l 422 957 l 422 972 l 789 972 l 789 957 l 760 954 b 701 843 704 951 667 917 l 810 610 l 906 825 b 829 954 947 915 883 951 l 799 957 l 799 972 l 1132 972 l 1132 957 l 1092 951 b 942 822 1036 944 985 919 l 829 569 l 1015 168 l 1039 168 l 1304 825 b 1229 951 1343 917 1283 946 l 1188 957 "},"X":{"ha":976,"x_min":0,"x_max":0,"o":"m 22 0 l 22 15 l 60 19 b 240 129 101 25 176 32 l 451 453 l 189 843 b 47 953 132 926 107 944 l 14 957 l 14 972 l 385 972 l 385 957 l 358 953 b 317 840 294 944 268 914 l 499 561 l 525 561 l 693 839 b 633 953 743 921 682 946 l 597 957 l 597 972 l 954 972 l 954 957 l 917 953 b 736 843 875 947 794 932 l 528 521 l 789 129 b 929 19 851 36 869 28 l 963 15 l 963 0 l 594 0 l 594 15 l 624 19 b 663 132 688 26 717 50 l 479 413 l 454 413 l 283 133 b 344 19 228 46 293 26 l 379 15 l 379 0 "},"Y":{"ha":951,"x_min":0,"x_max":0,"o":"m 14 958 l 14 972 l 378 972 l 378 958 l 351 956 b 299 853 286 947 257 931 l 496 490 l 519 490 l 697 842 b 647 954 740 929 706 947 l 611 958 l 611 972 l 938 972 l 938 958 l 903 954 b 735 846 850 947 786 942 l 524 446 l 525 128 b 601 19 525 63 536 24 l 667 15 l 667 0 l 278 0 l 278 15 l 342 19 b 419 128 407 24 419 63 l 419 431 l 185 846 b 50 954 136 935 110 947 "},"Z":{"ha":860,"x_min":0,"x_max":0,"o":"m 61 0 l 61 32 l 654 946 l 339 946 b 97 661 169 946 144 814 l 82 661 l 103 972 l 781 972 l 781 943 l 190 26 l 522 26 b 785 328 693 26 738 160 l 801 328 l 768 0 "},"a":{"ha":825,"x_min":0,"x_max":0,"o":"m 281 -21 b 67 164 157 -21 67 49 b 333 365 67 297 192 347 l 444 379 b 563 458 525 389 563 410 l 563 488 b 383 696 563 611 501 697 b 206 519 244 696 215 578 b 138 458 199 483 174 458 b 83 518 104 458 82 482 b 381 715 89 610 224 715 b 660 474 543 717 660 650 l 660 117 b 717 43 660 65 685 43 b 797 121 757 43 783 72 l 813 117 b 667 -14 799 38 739 -14 b 561 115 606 -14 542 21 l 576 196 l 553 196 b 281 -21 504 74 408 -21 m 335 57 b 563 331 443 57 563 167 l 563 396 l 556 396 b 444 350 539 375 497 358 l 369 339 b 178 182 257 321 178 283 b 335 57 178 104 238 57 "},"b":{"ha":849,"x_min":0,"x_max":0,"o":"m 435 -21 b 197 56 324 -21 238 24 l 183 56 l 124 0 l 107 0 l 107 903 b 35 974 107 969 81 986 l -36 951 l -42 968 l 193 1063 l 204 1056 l 204 683 l 188 531 l 211 531 b 486 715 268 633 357 715 b 782 358 632 715 782 615 b 435 -21 782 101 576 -21 m 415 6 b 668 351 572 6 668 150 b 444 661 668 561 560 661 b 207 424 314 661 207 522 l 207 156 b 415 6 225 90 310 6 "},"c":{"ha":776,"x_min":0,"x_max":0,"o":"m 410 -21 b 67 335 222 -21 65 114 b 433 715 68 560 235 715 b 714 522 571 715 708 628 b 657 461 715 488 692 461 b 592 526 622 461 599 485 b 411 692 571 631 508 692 b 175 361 274 692 175 538 b 451 38 175 144 314 38 b 701 203 565 38 663 110 l 718 196 b 410 -21 688 103 585 -21 "},"d":{"ha":911,"x_min":0,"x_max":0,"o":"m 375 -21 b 67 335 229 -21 67 78 b 429 715 67 592 286 715 b 643 644 529 715 601 678 l 643 903 b 571 974 643 969 615 986 l 500 951 l 493 968 l 731 1063 l 740 1056 l 740 146 b 813 76 740 83 764 63 l 883 97 l 889 82 l 640 -15 l 631 -8 l 661 164 l 638 164 b 375 -21 586 61 504 -21 m 417 33 b 643 271 549 33 643 172 l 643 538 b 438 689 626 604 542 689 b 181 342 281 689 181 543 b 417 33 181 132 303 33 "},"e":{"ha":775,"x_min":0,"x_max":0,"o":"m 411 -21 b 67 342 225 -21 65 121 b 429 715 68 564 244 715 b 701 518 599 715 701 617 b 556 417 701 432 625 417 l 179 417 b 176 374 178 401 176 388 b 453 36 178 186 285 36 b 701 203 565 36 664 110 l 717 196 b 411 -21 686 103 585 -21 m 465 443 b 594 542 522 443 594 467 b 429 696 594 618 539 696 b 181 443 308 696 197 589 "},"f":{"ha":551,"x_min":0,"x_max":0,"o":"m 57 0 l 57 15 l 113 19 b 176 128 153 22 176 53 l 176 646 l 31 646 l 46 694 l 176 694 b 535 1069 189 931 363 1069 b 625 1010 589 1069 625 1046 b 563 961 625 985 599 961 b 418 996 501 961 482 996 b 272 694 300 996 272 896 l 518 694 l 503 646 l 272 646 l 272 128 b 338 19 272 53 296 22 l 394 15 l 394 0 "},"g":{"ha":768,"x_min":0,"x_max":0,"o":"m 342 -319 b 40 -153 164 -319 40 -264 b 204 3 40 -62 113 -11 l 204 26 b 89 129 132 31 89 71 b 231 256 89 185 149 232 l 231 279 b 89 467 147 307 89 367 b 376 713 89 613 222 713 b 515 685 426 713 475 703 b 667 782 582 683 632 708 b 754 831 686 822 722 846 b 768 750 783 818 788 785 b 551 667 729 683 640 668 l 551 643 b 665 467 617 613 665 551 b 376 235 665 321 536 235 b 269 251 342 235 304 240 b 171 167 231 246 171 211 b 274 100 171 126 194 100 l 482 100 b 738 -79 633 100 738 25 b 342 -319 738 -246 532 -319 m 376 253 b 564 467 471 253 564 310 b 376 694 564 621 471 694 b 192 467 285 694 192 621 b 376 253 192 310 285 253 m 382 -297 b 643 -117 517 -297 643 -228 b 436 10 643 -21 549 10 l 279 10 b 144 -142 197 -12 144 -51 b 382 -297 144 -236 239 -297 "},"h":{"ha":889,"x_min":0,"x_max":0,"o":"m 39 0 l 39 15 l 93 19 b 157 118 135 22 157 53 l 157 903 b 85 974 157 969 131 986 l 14 951 l 8 968 l 243 1063 l 254 1056 l 254 683 l 238 551 l 261 551 b 525 715 324 642 411 715 b 744 465 654 715 744 633 l 744 118 b 807 19 744 53 768 22 l 867 15 l 867 0 l 529 0 l 529 15 l 583 19 b 647 118 624 22 647 53 l 647 446 b 478 663 647 585 583 663 b 254 474 383 663 283 582 l 254 118 b 318 19 254 53 278 22 l 376 15 l 376 0 "},"i":{"ha":424,"x_min":0,"x_max":0,"o":"m 218 871 b 140 942 176 871 140 901 b 218 1015 140 986 176 1015 b 296 942 261 1015 296 986 b 218 871 296 901 261 871 m 58 0 l 58 15 l 114 19 b 176 118 154 22 176 53 l 176 553 b 104 622 176 619 150 636 l 33 601 l 28 617 l 264 711 l 274 704 l 274 118 b 338 19 274 53 297 22 l 396 15 l 396 0 "},"j":{"ha":408,"x_min":0,"x_max":0,"o":"m 249 871 b 169 942 207 871 169 901 b 249 1015 169 986 207 1015 b 325 942 292 1015 325 986 b 249 871 325 901 292 871 m 10 -299 b 203 -8 133 -281 203 -203 l 203 553 b 131 622 203 619 175 636 l 60 601 l 54 617 l 290 711 l 300 704 l 300 -35 b 10 -314 300 -299 125 -311 "},"k":{"ha":808,"x_min":0,"x_max":0,"o":"m 39 0 l 39 15 l 94 19 b 157 107 135 22 157 42 l 157 914 b 85 974 157 981 131 986 l 17 951 l 8 968 l 244 1063 l 254 1056 l 254 467 l 242 363 l 264 363 l 485 581 b 479 676 532 626 521 671 l 438 681 l 438 694 l 731 694 l 731 681 l 701 676 b 522 579 636 668 579 635 l 369 433 l 660 83 b 767 19 693 40 721 25 l 800 14 l 800 0 l 486 0 l 486 14 l 531 18 b 543 72 564 22 568 42 l 301 368 l 254 321 l 254 107 b 318 19 254 42 278 22 l 376 15 l 376 0 "},"l":{"ha":404,"x_min":0,"x_max":0,"o":"m 39 0 l 39 15 l 94 19 b 157 118 135 22 157 53 l 157 903 b 85 974 157 969 131 986 l 14 951 l 8 968 l 244 1063 l 254 1056 l 254 118 b 318 19 254 53 278 22 l 376 15 l 376 0 "},"m":{"ha":1286,"x_min":0,"x_max":0,"o":"m 53 0 l 53 15 l 107 19 b 171 118 149 22 171 53 l 171 547 b 99 617 171 610 147 632 l 28 596 l 22 613 l 269 710 l 279 703 l 250 546 l 275 546 b 504 715 321 635 397 715 b 692 546 615 715 682 651 l 714 546 b 944 715 744 618 821 715 b 1144 472 1069 715 1144 633 l 1144 118 b 1207 19 1144 53 1168 22 l 1267 15 l 1267 0 l 929 0 l 929 15 l 983 19 b 1047 118 1024 22 1047 53 l 1047 443 b 907 654 1047 572 1013 654 b 706 456 817 654 725 574 l 706 118 b 769 19 706 53 729 22 l 828 15 l 828 0 l 490 0 l 490 15 l 546 19 b 608 118 585 22 608 53 l 608 435 b 468 654 608 568 574 654 b 268 456 379 654 288 576 l 268 118 b 332 19 268 53 292 22 l 390 15 l 390 0 "},"n":{"ha":900,"x_min":0,"x_max":0,"o":"m 53 0 l 53 15 l 108 19 b 171 118 144 22 171 53 l 171 547 b 99 617 171 610 147 632 l 28 596 l 22 613 l 269 710 l 281 703 l 254 551 l 278 551 b 539 715 339 642 428 715 b 760 465 668 715 760 633 l 760 118 b 824 19 760 53 782 22 l 881 15 l 881 0 l 543 0 l 543 15 l 599 19 b 663 118 639 22 663 53 l 663 446 b 493 663 663 585 599 663 b 269 475 399 663 299 574 l 268 118 b 332 19 268 53 292 22 l 390 15 l 390 0 "},"o":{"ha":867,"x_min":0,"x_max":0,"o":"m 435 -21 b 67 346 240 -21 68 113 b 433 715 65 579 239 715 b 800 347 626 715 801 581 b 435 -21 800 114 628 -21 m 435 0 b 692 347 565 0 693 110 b 433 694 692 582 564 694 b 176 346 303 694 176 583 b 435 0 176 110 303 -3 "},"p":{"ha":901,"x_min":0,"x_max":0,"o":"m 44 -306 l 44 -290 l 99 -286 b 163 -187 140 -283 163 -253 l 163 547 b 90 617 163 610 139 631 l 19 596 l 14 611 l 261 708 l 271 701 l 242 529 l 267 529 b 528 715 317 632 397 715 b 835 358 674 715 835 615 b 483 -22 835 101 626 -22 b 260 49 383 -22 301 14 l 260 -187 b 324 -286 260 -253 283 -283 l 382 -290 l 382 -306 m 465 4 b 722 351 621 4 722 149 b 485 660 722 561 600 660 b 260 422 354 660 260 521 l 260 156 b 465 4 276 89 361 4 "},"q":{"ha":890,"x_min":0,"x_max":0,"o":"m 656 -319 l 644 -312 l 644 11 l 661 164 l 638 164 b 363 -21 581 61 492 -21 b 67 336 217 -21 67 79 b 425 715 67 593 283 715 b 651 639 536 715 613 671 l 665 639 l 726 694 l 742 694 l 742 -160 b 814 -231 742 -226 769 -243 l 885 -208 l 890 -225 m 404 33 b 643 271 535 33 643 172 l 643 539 b 433 689 624 604 539 689 b 181 343 278 689 181 544 b 404 33 181 133 289 33 "},"r":{"ha":649,"x_min":0,"x_max":0,"o":"m 58 0 l 58 15 l 115 19 b 178 107 154 22 178 42 l 176 547 b 104 614 176 610 153 629 l 33 593 l 28 608 l 275 710 l 286 703 l 257 507 l 281 507 b 507 710 357 653 426 710 b 604 643 564 710 604 686 b 536 586 604 610 576 586 b 436 614 493 586 482 614 b 274 436 361 614 299 517 l 275 107 b 339 19 275 42 299 22 l 396 15 l 396 0 "},"s":{"ha":706,"x_min":0,"x_max":0,"o":"m 374 -21 b 151 33 242 -21 203 33 b 101 -14 117 33 106 6 l 88 -14 l 74 236 l 89 236 b 363 0 118 100 238 0 b 531 136 468 0 531 57 b 371 290 531 211 476 258 l 261 324 b 90 521 164 353 90 419 b 344 715 90 643 213 715 b 538 672 460 715 489 672 b 574 710 563 672 568 690 l 588 710 l 601 479 l 585 479 b 342 694 558 603 464 694 b 188 558 251 694 188 642 b 342 410 188 478 244 440 l 451 375 b 633 175 558 342 633 279 b 374 -21 633 47 507 -21 "},"t":{"ha":467,"x_min":0,"x_max":0,"o":"m 282 -14 b 135 169 174 -14 135 71 l 135 649 l 14 649 l 14 683 l 51 688 b 200 833 129 697 181 743 l 207 875 l 231 875 l 231 694 l 431 694 l 415 649 l 231 649 l 231 179 b 319 49 231 92 267 49 b 422 146 367 49 404 86 l 439 142 b 282 -14 425 76 383 -14 "},"u":{"ha":900,"x_min":0,"x_max":0,"o":"m 374 -19 b 157 232 243 -19 157 64 l 157 560 b 85 619 157 626 131 632 l 14 597 l 8 614 l 243 708 l 254 701 l 254 251 b 419 36 254 113 314 36 b 644 225 519 36 614 117 l 644 560 b 572 619 644 626 617 632 l 501 597 l 494 614 l 732 708 l 742 701 l 742 153 b 814 83 742 90 767 69 l 885 104 l 892 89 l 642 -12 l 632 -6 l 661 146 l 636 146 b 374 -19 574 54 485 -19 "},"v":{"ha":842,"x_min":0,"x_max":0,"o":"m 429 0 l 144 601 b 46 675 117 660 93 671 l 14 679 l 14 694 l 346 694 l 346 679 l 303 675 b 247 615 265 671 226 660 l 456 156 l 479 156 l 646 572 b 588 675 671 636 635 672 l 554 679 l 554 694 l 828 694 l 828 679 l 796 675 b 675 564 731 669 706 635 l 440 0 "},"w":{"ha":1135,"x_min":0,"x_max":0,"o":"m 358 0 l 139 601 b 43 675 118 660 90 671 l 14 679 l 14 694 l 333 694 l 333 679 l 293 675 b 239 615 256 671 224 660 l 394 179 l 418 179 l 561 557 l 546 601 b 450 675 525 660 499 671 l 421 679 l 421 694 l 739 694 l 739 679 l 699 675 b 643 615 661 671 629 660 l 797 179 l 821 179 l 943 572 b 888 675 961 629 946 671 l 853 679 l 853 694 l 1121 694 l 1121 679 l 1090 675 b 972 564 1025 669 993 632 l 786 0 l 765 0 l 588 492 l 564 492 l 379 0 "},"x":{"ha":761,"x_min":0,"x_max":0,"o":"m 14 0 l 14 17 l 46 18 b 192 110 106 22 153 60 l 346 318 l 150 606 b 49 676 114 657 90 672 l 22 678 l 22 694 l 315 694 l 315 678 l 294 678 b 264 603 246 676 232 651 l 393 406 l 411 406 l 531 579 b 489 676 567 629 540 672 l 460 678 l 460 694 l 747 694 l 747 678 l 715 676 b 571 585 657 672 608 635 l 415 376 l 613 89 b 713 18 647 38 671 22 l 740 17 l 740 0 l 446 0 l 446 17 l 467 17 b 499 92 515 18 531 43 l 369 288 l 350 288 l 231 115 b 272 18 196 65 221 22 l 301 17 l 301 0 "},"y":{"ha":842,"x_min":0,"x_max":0,"o":"m 124 -300 b 31 -236 65 -300 31 -275 b 122 -182 31 -204 64 -174 b 424 26 276 -206 336 -162 l 144 601 b 46 675 117 658 93 671 l 14 679 l 14 694 l 343 694 l 343 679 l 301 675 b 244 615 264 671 225 660 l 465 158 l 479 158 l 646 572 b 588 675 671 636 635 672 l 554 679 l 554 694 l 828 694 l 828 679 l 796 675 b 675 564 731 669 706 635 l 436 -1 b 124 -300 354 -194 239 -300 "},"z":{"ha":706,"x_min":0,"x_max":0,"o":"m 56 0 l 56 17 l 513 671 l 311 671 b 83 464 204 671 121 618 l 68 464 l 96 694 l 628 694 l 628 681 l 176 24 l 396 24 b 635 243 513 24 599 88 l 650 243 l 619 0 "},".":{"ha":322,"x_min":0,"x_max":0,"o":"m 161 -11 b 83 60 121 -11 83 19 b 161 133 83 104 121 133 b 239 60 204 133 239 104 b 161 -11 239 19 204 -11 "},",":{"ha":336,"x_min":0,"x_max":0,"o":"m 83 -172 l 78 -153 l 104 -142 b 201 1 161 -115 206 -67 b 158 -12 197 -3 181 -12 b 85 60 121 -12 85 18 b 163 133 85 104 121 133 b 253 22 213 133 253 97 b 108 -164 253 -81 178 -142 "},"/":{"ha":628,"x_min":0,"x_max":0,"o":"m 83 -187 l 500 1021 l 544 1021 l 128 -187 "},"-":{"ha":710,"x_min":0,"x_max":0,"o":"m 69 469 l 81 511 l 640 511 l 629 469 "},"’":{"ha":322,"x_min":0,"x_max":0,"o":"m 83 667 l 78 686 l 104 697 b 201 839 161 724 206 772 b 158 826 197 836 181 826 b 85 897 121 826 85 857 b 163 972 85 943 121 972 b 253 860 213 972 253 935 b 108 675 253 758 178 696 "},"'":{"ha":322,"x_min":0,"x_max":0,"o":"m 83 667 l 78 686 l 104 697 b 201 839 161 724 206 772 b 158 826 197 836 181 826 b 85 897 121 826 85 857 b 163 972 85 943 121 972 b 253 860 213 972 253 935 b 108 675 253 758 178 696 "},"&":{"ha":1013,"x_min":0,"x_max":0,"o":"m 971 174 b 760 -14 951 108 888 -14 b 576 79 697 -14 636 21 b 325 -19 510 17 428 -19 b 56 217 149 -19 56 106 b 283 519 56 369 139 435 b 222 744 246 600 222 676 b 438 988 222 888 314 988 b 626 817 547 988 626 914 b 410 568 626 686 515 626 l 378 550 b 478 367 404 490 439 429 b 621 165 528 288 574 218 b 738 439 683 249 724 354 b 668 550 750 497 744 544 l 626 554 l 626 569 l 932 569 l 932 554 l 894 550 b 778 443 822 543 800 506 b 638 147 740 331 696 228 b 814 58 692 92 749 58 b 957 179 888 58 938 119 m 440 972 b 315 782 356 972 315 879 b 369 569 315 718 336 646 l 426 601 b 550 822 525 658 550 728 b 440 972 550 903 515 972 m 160 261 b 388 35 160 128 249 35 b 557 99 453 35 510 60 b 407 300 507 151 457 221 b 292 501 364 368 324 436 b 160 261 206 442 160 364 "}}}
